<?xml version="1.0" encoding="UTF-8"?>
<svg id="Layer_2" data-name="Layer 2" xmlns="http://www.w3.org/2000/svg" viewBox="0 0 108 112.5">
  <defs>
    <style>
      .cls-1 {
        fill: #ffffff;
      }
    </style>
  </defs>
  <g id="Layer_1-2" data-name="Layer 1">
    <path class="cls-1" d="M30,0h4c1.11,0,2,.9,2,2v86c0,1.1-.89,2-2,2h-14c-1.11,0-2-.9-2-2V12c0-6.62,5.38-12,12-12Z"/>
    <path class="cls-1" d="M92.25,94.5h-2.25v2.25c0-1.24,1.01-2.25,2.25-2.25Z"/>
    <path class="cls-1" d="M96,94.5h-2.62c-1.86,0-3.38-1.51-3.38-3.38V12c0-6.63-5.37-12-12-12h-4c-1.11,0-2,.9-2,2v89.12c0,1.86-1.51,3.38-3.38,3.38H2c-1.11,0-2,.9-2,2v4c0,6.63,5.37,12,12,12h58c1.11,0,2-.9,2-2v-12.62c0-1.86,1.51-3.38,3.38-3.38h11.25c1.86,0,3.38,1.51,3.38,3.38v12.62c0,1.11.9,2,2,2h13.99c1.11,0,2-.9,2-2v-4c0-6.63-5.37-12-12-12Z"/>
  </g>
</svg>
